# xmcd
#
# Track frame offsets:
#	150
#	17660
#	32639
#	50431
#	65673
#	84184
#	103455
#	117115
#	129787
#	142886
#	158970
#	174053
#	185664
#	196856
#	212601
#	227657
#	243274
#	256613
#	269977
#	284449
#	300749
#	319201
#
# Disc length: 4460
#
# Revision: 1
# Processed by: cddbd v1.5.1PL0 Copyright (c) Steve Scherf et al.
# Submitted via: ExactAudioCopy v0.90a11
# Normalized: r0:DSETVAR1
#
DISCID=30116a16
DTITLE=Various Artist - HOTT2DEATH R&B Central the Selection v2 CD#2
DYEAR=1900
DGENRE=
TTITLE0=Jagged Edge - Where the Party At
TTITLE1=Sisqo - Can I Live
TTITLE2=Usher - I Don't Know
TTITLE3=Kandice Love - Love
TTITLE4=Marian Carey - Lover By
TTITLE5=Mary J. Blige - Rock Steady
TTITLE6=Sisqo - Dance With Me
TTITLE7=Method Man - Party and BullShit
TTITLE8=Redman - Smash Sumthin'
TTITLE9=Busta feat. Flipmde and Kelis - What It Is (part 2)
TTITLE10=Violater feat. Nore - Grimey
TTITLE11=Screwball - Live and Let Die
TTITLE12=Beanie Siegal - I Don't Do Much
TTITLE13=Eve feat. Grewn Stefani - Let Me Blow Your Mind
TTITLE14=Foxy Brown feat. Kelis - Kandi
TTITLE15=Phillys Most Wanted - Please Don't Mind
TTITLE16=Ludacris - Area Code
TTITLE17=Sunshine - Heard it All Before (rmx feat. Jada)
TTITLE18=Erick Sermon - Music (feat. Marvin Gaye)
TTITLE19=Aaliyah - Resolution
TTITLE20=Usher - U Remind Me
TTITLE21=JLo - I'm Real (feat. Ja Rule)
EXTD=
EXTT0=
EXTT1=
EXTT2=
EXTT3=
EXTT4=
EXTT5=
EXTT6=
EXTT7=
EXTT8=
EXTT9=
EXTT10=
EXTT11=
EXTT12=
EXTT13=
EXTT14=
EXTT15=
EXTT16=
EXTT17=
EXTT18=
EXTT19=
EXTT20=
EXTT21=
PLAYORDER=
